<?xml version="1.0" encoding="UTF-8" standalone="no"?>
<svg
   id="templatesarea.com"
   width="600"
   height="600"
   viewBox="0 0 600 600"
   version="1.1"
   sodipodi:docname="star-wars-svg-darth-vader-head-font-free-download.svg"
   inkscape:version="1.2.1 (9c6d41e410, 2022-07-14)"
   xmlns:inkscape="http://www.inkscape.org/namespaces/inkscape"
   xmlns:sodipodi="http://sodipodi.sourceforge.net/DTD/sodipodi-0.dtd"
   xmlns="http://www.w3.org/2000/svg"
   xmlns:svg="http://www.w3.org/2000/svg"
   xmlns:rdf="http://www.w3.org/1999/02/22-rdf-syntax-ns#"
   xmlns:cc="http://creativecommons.org/ns#"
   xmlns:dc="http://purl.org/dc/elements/1.1/">
  <title
     id="title164">Free downloadable Darth Vader head and font SVG image.</title>
  <defs
     id="defs56" />
  <sodipodi:namedview
     id="namedview54"
     pagecolor="#ffffff"
     bordercolor="#000000"
     borderopacity="0.25"
     inkscape:showpageshadow="2"
     inkscape:pageopacity="0.0"
     inkscape:pagecheckerboard="0"
     inkscape:deskcolor="#d1d1d1"
     showgrid="false"
     inkscape:zoom="1.3566667"
     inkscape:cx="300.36855"
     inkscape:cy="300.36855"
     inkscape:window-width="1920"
     inkscape:window-height="1001"
     inkscape:window-x="-9"
     inkscape:window-y="-9"
     inkscape:window-maximized="1"
     inkscape:current-layer="templatesarea.com" />
  <g
     id="SPLINE">
    <g
       id="g24">
      <path
         d="m384.32,449.23c.19-.3.32-.64.41-.99.17-.69.16-1.41.15-2.12-.03-2.3-.05-4.57-.08-6.85-.02-1.96-.04-3.93-.05-5.9-.03-4.84-.02-9.68,0-14.52h-13.68c.01,4.84.03,9.68,0,14.52-.01,1.97-.04,3.94-.06,5.9-.02,2.28-.04,4.55-.07,6.85-.01.71-.02,1.43.15,2.12.09.35.22.69.41.99.22.36.52.67.86.94.17.14.36.26.57.35.12.05.25.09.39.1.08.01.16.01.24,0,.16.23.33.46.49.69h-13.61c.22-.14.45-.29.69-.43.53-.33,1.08-.67,1.48-1.14.61-.72.84-1.73.98-2.72.22-1.52.23-2.97.24-4.43.02-4.38.03-8.83.05-13.28.03-5.49.07-10.97.04-16.37-.01-1.69-.02-3.38-.2-5.12-.1-.96-.25-1.94-.75-2.73-.19-.28-.42-.55-.67-.79-.44-.43-.94-.81-1.43-1.18h13.8c-.1.15-.2.29-.31.44-.15-.01-.3-.01-.44.02-.33.07-.62.28-.86.53-.69.71-.97,1.66-1.2,2.61-.2.83-.35,1.66-.44,2.5-.14,1.25-.14,2.53-.13,3.8,0,.82.02,1.65.03,2.47h13.18c.01-.82.02-1.65.03-2.47.01-1.27.01-2.55-.13-3.8-.09-.84-.25-1.67-.45-2.5-.22-.95-.51-1.9-1.19-2.61-.24-.25-.53-.46-.86-.53-.14-.03-.29-.03-.45-.02-.1-.15-.2-.29-.31-.44h13.81c-.5.37-.99.75-1.43,1.18-.25.24-.49.51-.67.79-.51.79-.65,1.77-.75,2.73-.18,1.74-.19,3.43-.2,5.12-.03,5.4.01,10.88.04,16.37.02,4.45.03,8.9.05,13.28.01,1.46.02,2.91.24,4.43.14.99.37,2,.98,2.72.4.47.95.81,1.48,1.14.23.14.46.29.69.43h-13.62c.17-.23.34-.46.5-.69.08.01.16.01.24,0,.13-.01.27-.05.39-.1.21-.09.39-.21.57-.35.33-.27.63-.58.86-.94Z"
         id="path2" />
      <path
         d="m343.17,403.24c1.89.01,3.79-.03,5.7,0,1,.02,2.01.06,3-.08.72-.1,1.43-.31,2.1-.61.46-.21.9-.46,1.29-.76.27-.21.51-.43.76-.66.23,1.57.45,3.14.64,4.71.13,1.06.24,2.13.36,3.19.29.98.59,1.97.88,2.96.27.96.53,1.92.8,2.88-.18-.26-.36-.53-.57-.77-.17-.21-.36-.4-.55-.6-.29-.56-.58-1.11-.91-1.64-.51-.8-1.12-1.52-1.77-2.21-.84-.9-1.73-1.74-2.73-2.47-.92-.68-1.94-1.26-3.03-1.6-.6-.19-1.21-.31-1.84-.37l-.39-.03c-.11,0-.22-.01-.33-.01-.07,0-.14.01-.21.03-.06.02-.12.05-.17.09-.08.08-.14.17-.19.27-.21.38-.34.8-.44,1.23-.29,1.14-.43,2.3-.52,3.47-.21,2.66-.17,5.34-.13,8,.09,5.94.16,11.86.1,17.82-.01,1.74-.04,3.48-.05,5.2,0,1.99,0,3.96.07,6.04.03.64.06,1.29.35,1.84.1.2.23.38.39.53.29.29.66.5,1.02.69.48.24.97.46,1.45.68h-14.05c.2-.06.4-.13.59-.21.35-.14.67-.35.96-.59.45-.37.83-.84,1.1-1.34.48-.9.65-1.94.75-2.97.08-.81.12-1.6.15-2.4.14-3.52.09-7.06.15-10.62.07-4.06.27-8.15.14-12.12-.08-2.57-.3-5.1-.27-7.83.01-1.11.06-2.26-.46-3.14-.21-.34-.49-.64-.77-.94-.29-.29-.57-.58-.85-.87.41,0,.83,0,1.23-.06.57-.08,1.12-.26,1.66-.46.62-.24,1.22-.52,1.81-.8.43-.2.85-.4,1.27-.61v-.74c-.15-.05-.31-.09-.46-.12-.62-.13-1.26-.1-1.9-.05-1.39.12-2.76.3-4.08.69-1.54.45-3.02,1.19-4.36,2.12-1.24.86-2.37,1.88-3.29,3.04-.87,1.09-1.57,2.31-2.27,3.52.48-2.49.96-4.98,1.37-7.48.27-1.69.51-3.38.75-5.08.17-.14.33-.29.5-.43.1.2.21.4.36.57.27.32.67.52,1.09.67.64.24,1.3.36,1.97.43,1.52.17,3.07.05,4.61,0,2.42-.07,4.82,0,7.22,0Z"
         id="path4" />
      <path
         d="m315.52,449.96c1.34-2.19,2.49-4.54,3-7.08.6-2.98.31-6.22-.8-8.97-1.1-2.72-2.99-4.96-5.24-6.94-2.01-1.78-4.29-3.34-6.74-4.62-1.42-.74-2.9-1.39-4.44-1.51.87-.85,1.74-1.71,2.68-2.48,1.45-1.19,3.06-2.2,4.8-2.97.15-.07.3-.13.44-.19l2.56,1.44c-.47.22-.92.46-1.33.78-.36.28-.68.61-1,.93.93.28,1.87.56,2.77.91,2.44.95,4.69,2.44,6.47,4.38,1.97,2.16,3.34,4.86,4,7.7.66,2.88.58,5.9-.06,8.77-.52,2.33-1.41,4.56-2.59,6.62-.93,1.6-2.03,3.1-3.28,4.48-.82.9-1.7,1.75-2.64,2.52-.78.63-1.6,1.21-2.42,1.8,1.32-1.82,2.65-3.64,3.82-5.57Z"
         id="path6" />
      <path
         d="m297.49,449.31c.12.21.26.41.43.57.25.24.58.39.89.55.41.2.8.42,1.19.63l-12.75.12c.46-.31.92-.62,1.35-.98.45-.38.88-.81,1.14-1.32.44-.84.44-1.87.44-2.89-.01-3,.03-5.82.04-8.67.04-6.35-.01-12.87-.03-19.32-.01-2.31-.01-4.62-.02-6.92-.78-1.07-1.97-1.67-3.29-1.68,1.42-1.03,2.84-2.06,4.35-2.97,2.26-1.36,4.71-2.45,7.28-3.15,2.21-.6,4.5-.92,6.72-1.07,1.66-.11,3.28-.14,4.97-.04,1.5.09,3.05.28,4.5.78,1.71.6,3.28,1.64,4.44,3,.79.91,1.39,1.97,1.87,3.08.56,1.26.97,2.59,1.37,3.91-.45-.03-.9-.06-1.35-.04-1.08.05-2.13.43-3.14.88-1.59.69-3.06,1.54-4.65,2.23-.48.21-.98.41-1.46.63l-2.56-1.44c1.05-.45,2.1-.87,2.93-1.63.75-.7,1.31-1.67,1.42-2.69.13-1.33-.53-2.72-1.5-3.69-.81-.8-1.83-1.3-2.91-1.59-1.7-.46-3.53-.39-5.24.1-1.47.42-2.86,1.14-3.92,2.2-1.12,1.13-1.86,2.63-2.27,4.18-.46,1.79-.48,3.63-.5,5.46-.04,3.6-.1,7.17-.18,10.76-.11,4.21-.25,8.45-.22,12.62.01,1.86.05,3.71.13,5.63.04.95.09,1.93.53,2.76Z"
         id="path8" />
      <path
         d="m259.39,451.74c-2.52-2.67-4.71-5.67-6.18-8.97-1.36-3.04-2.11-6.34-2.4-9.66-.32-3.6-.09-7.23.76-10.72.83-3.42,2.27-6.69,3.9-9.82.71-1.35,1.44-2.66,2.22-3.94.3-.49.6-.97.85-1.5.18-.38.34-.78.34-1.19-.01-.49-.25-1-.59-1.37-.29-.31-.66-.54-1.05-.69-.41-.16-.84-.24-1.27-.32-.02-.17-.04-.34-.07-.5h29.35c-.06.08-.12.16-.18.25-.19.07-.38.15-.55.25-.55.31-.96.85-1.26,1.42-.55,1.01-.75,2.13-.9,3.24-.64,4.7-.37,9.42-.32,14.13.04,4.98-.18,9.96-.28,14.94-.03,1.53-.05,3.05-.08,4.58-.04,1.46-.08,2.93.02,4.4.07.97.2,1.94.59,2.84.12.28.27.57.49.78.15.15.33.27.52.38.18.09.36.17.53.26.19.11.37.23.55.35.08.06.17.12.25.18h-13.62c.02-.15.05-.29.07-.44.22-.02.43-.04.65-.09.18-.05.36-.13.53-.23.49-.31.84-.82,1.1-1.35.77-1.53.86-3.23.97-4.92.3-5.05.66-9.98.7-14.97.02-2.26-.03-4.54-.02-6.82.01-1.15.03-2.3.05-3.45-.77-.02-1.54-.05-2.31-.06-1.52-.03-3.05-.03-4.58.01-.98.02-1.97.06-2.95.18-.59.07-1.19.17-1.78.34-.34.09-.69.2-.97.41-.13.1-.25.22-.35.36.11-.45.22-.9.37-1.33.26-.76.64-1.49,1.05-2.18.22-.39.46-.77.7-1.15.14.04.28.08.43.12.51.12,1.04.17,1.57.22,1.2.09,2.39.15,3.58.18.79.02,1.58.03,2.36.04h1.09c.27,0,.53-.01.78-.1.29-.1.56-.3.75-.56.16-.22.26-.47.34-.73.31-1.01.26-2.09.22-3.15-.03-.89-.05-1.77-.12-2.65-.04-.53-.09-1.06-.26-1.57-.06-.21-.15-.41-.26-.6-.07-.12-.15-.23-.23-.34-.75.06-1.51.12-2.26.27-.88.17-1.73.47-2.55.84-1.37.62-2.63,1.47-3.76,2.47-1.31,1.16-2.44,2.52-3.46,3.96-1.81,2.58-3.25,5.42-4.32,8.38-.98,2.73-1.66,5.56-1.93,8.44-.29,3.13-.1,6.32.59,9.38.57,2.55,1.49,5.01,2.53,7.4.49,1.13,1.01,2.24,1.58,3.33.42.8.86,1.58,1.37,2.32.27.4.56.79.77,1.21.18.36.31.74.44,1.12-1.44-.97-2.82-2.25-4.1-3.61Z"
         id="path10" />
      <path
         d="m225.14,447.58c1.49-.77,2.92-1.66,4.26-2.69,1.81-1.39,3.45-3.01,4.85-4.82,1.74-2.25,3.12-4.77,4.14-7.44.99-2.57,1.65-5.27,1.91-8.07.32-3.51.01-7.18-1.23-10.65-1.01-2.85-2.65-5.57-4.9-6.89-1.64-.97-3.62-1.18-5.72-1.16-1.96.02-4.03.24-5.65,1.25-1.25.77-2.22,2.02-2.79,3.38-.7,1.73-.76,3.66-.78,5.56-.04,2.93-.02,5.8,0,8.68,0,1.39.02,2.77.02,4.16-.02,5.05-.24,10.12-.2,15.13.01.98.03,1.97-.05,2.98-.04.48-.11.96.04,1.41.05.15.13.3.23.42.14.16.33.28.54.36.33.13.69.15,1.03.12.53-.06,1.02-.25,1.51-.46.95-.39,1.88-.81,2.79-1.27Zm-14.5,1.65c.57-.56.73-1.47.84-2.33.12-1,.18-1.94.23-2.89.15-3.25.16-6.61.15-9.94,0-4.25-.02-8.44.13-12.69.06-1.61.14-3.24.15-4.83.01-1.35-.03-2.68-.14-4.09-.03-.49-.08-.99-.29-1.4-.19-.38-.54-.69-.94-.94-.36-.24-.78-.43-1.19-.55-.4-.12-.8-.16-1.24-.17,1.89-1.45,3.93-2.7,6.1-3.74,3.36-1.61,7.02-2.71,10.73-3.12,3.6-.39,7.26-.14,10.81.58,2.26.45,4.49,1.09,6.59,2.07,1.45.67,2.85,1.5,4.03,2.56.57.52,1.09,1.08,1.6,1.65-.75-.03-1.38.37-1.68,1.06.48,1.79.96,3.57,1.26,5.4.62,3.73.5,7.62-.42,11.31-1.03,4.16-3.09,8.05-5.84,11.33-2.07,2.46-4.52,4.58-7.14,6.4-2.31,1.6-4.75,2.98-7.37,4.09-1.95.83-4,1.5-6.08,1.81-1.43.21-2.88.25-4.31.26-1.75.02-3.49,0-5.24,0h-3.09v-.68c.43-.16.86-.31,1.29-.5.39-.17.77-.37,1.06-.65Z"
         id="path12" />
      <path
         d="m160.16,459.71c.93.06,1.85.16,2.77.26-.38.15-.76.29-1.12.46-.43.19-.85.41-1.25.66-.4.24-.78.52-1.12.86-.26.27-.49.57-.61.91-.12.38-.09.81-.05,1.24.19,1.69.62,3.26,1.05,4.85,1.06,3.93,2.09,7.93,3.15,11.9,1.7,6.29,3.5,12.51,5.34,18.74,1.08,3.67,2.17,7.35,3.27,11.02.79,2.65,1.58,5.3,2.46,7.92.49,1.47,1,2.92,1.64,4.34.1,0,.21.01.32-.01.11-.03.21-.08.29-.16.11-.09.17-.22.23-.35.11-.19.22-.38.33-.56,2.1-3.52,3.74-7.3,5.3-11.09,1.71-4.17,3.34-8.35,4.7-12.67,1.02-3.23,1.89-6.55,2.02-9.91.12-2.94-.33-5.91-1.06-8.8-.68-2.67-1.61-5.27-2.98-7.66-.97-1.69-2.16-3.27-3.6-4.58-1.03-.94-2.2-1.74-3.45-2.35-.51-.25-1.05-.48-1.59-.65-.43-.14-.86-.26-1.29-.37.64-.26,1.27-.52,1.89-.81.84-.4,1.65-.85,2.46-1.3,1.43-.78,2.86-1.56,4.3-2.3.91-.47,1.83-.92,2.75-1.39.48-.25.96-.5,1.49-.63.16-.04.32-.06.47-.04.14.02.27.08.39.15.21.13.41.28.59.45.51.48.94,1.05,1.35,1.64,1.14,1.61,2.12,3.31,2.93,5.09,1.11,2.44,1.9,5.04,2.33,7.69.81,4.9.44,9.97-.55,14.86-.91,4.51-2.33,8.86-3.92,13.15-2.29,6.16-4.92,12.19-7.72,18.14-2.52,5.35-5.18,10.62-7.87,15.89-2.34,4.59-4.69,9.17-7.04,13.75-3.17-10.57-6.34-21.14-9.41-31.75-2.22-7.68-4.39-15.37-6.32-23.11-1.71-6.8-3.23-13.62-5.17-20.41-.81-2.84-1.7-5.68-3.23-8.21-.28-.46-.58-.92-.94-1.32-.49-.53-1.08-.96-1.72-1.31-.62-.34-1.29-.61-1.77-1.1-.22-.22-.4-.49-.58-.76,2.3-.1,4.6-.2,6.91-.3,2.54-.1,5.09-.2,7.64-.22,2-.03,4-.01,5.99.15Z"
         id="path14" />
      <path
         d="m238.34,543.32c.6-.4,1.07-.99,1.45-1.61.6-.98,1-2.05,1.33-3.13,1.74-5.63,1.63-11.67,1.65-17.61,0-5.54.12-10.99.2-16.47.09-5.59.15-11.21.21-16.82-1.83-.04-3.67-.08-5.5-.11-2.63-.04-5.26-.05-7.88.05-1.76.07-3.53.19-5.27.47-.69.11-1.37.24-2.03.45-.39.13-.78.28-1.15.47-.25.12-.49.26-.68.45-.14.12-.25.27-.36.42.1-.47.2-.93.33-1.39.34-1.23.87-2.41,1.47-3.54.6-1.14,1.27-2.23,1.94-3.32.2.06.39.12.59.17,1.01.27,2.07.36,3.12.44,1.83.15,3.66.25,5.5.29,1.54.04,3.09.04,4.63.08.81.03,1.61.06,2.43.01.42-.02.84-.06,1.22-.22.45-.18.85-.51,1.15-.9.41-.53.63-1.17.78-1.81.35-1.52.3-3.08.26-4.63-.04-1.72-.05-3.44-.21-5.15-.1-.98-.24-1.95-.54-2.89-.12-.37-.26-.74-.46-1.07-.1-.17-.21-.32-.33-.48-1.43.12-2.86.25-4.26.54-2.29.47-4.5,1.4-6.53,2.6-2.4,1.41-4.55,3.19-6.44,5.2-3.39,3.63-5.89,8-8.1,12.53-3.53,7.25-6.31,14.91-7,22.8-.49,5.56.07,11.24,1.25,16.76,1.11,5.2,2.78,10.26,5.16,14.96,1.67,3.28,3.68,6.39,5.69,9.5.26.66.51,1.32.77,1.98-.69-.5-1.39-.99-2.06-1.51-2.78-2.18-5.12-4.87-7.34-7.69-4.32-5.49-8.2-11.47-10.7-17.92-2.37-6.11-3.5-12.65-3.24-19.46.21-5.52,1.33-11.22,2.98-16.23,1.18-3.61,2.64-6.86,4.38-10.11,1.45-2.74,3.11-5.48,4.73-8.26,1.08-1.85,2.14-3.72,3.1-5.65,0-.14.01-.28,0-.42,0-.25-.05-.49-.1-.74-.1-.39-.24-.78-.44-1.13-.26-.44-.61-.83-1.01-1.14-.59-.46-1.28-.78-2-.99-.53-.15-1.06-.25-1.6-.35-.04-.29-.08-.59-.12-.88h51.9c-.74.43-1.02.6-1.29.78-.68.48-1.31,1.11-1.8,1.81-.99,1.4-1.48,3.07-1.8,4.76-.54,2.88-.61,5.78-.66,8.68-.13,6.96-.2,13.89-.28,20.83-.08,8.26-.17,16.53-.36,24.82-.08,3.34-.17,6.69-.18,10.01-.01,2.39.03,4.77.41,7.18.18,1.17.44,2.35,1.1,3.3.36.51.82.95,1.35,1.29s1.11.58,1.64.9c.27.16.52.35.78.53h-24.09c.04-.26.08-.51.11-.77.3-.03.6-.05.89-.11.46-.1.92-.29,1.31-.55Z"
         id="path16" />
      <path
         d="m285.92,541.65c.59-.02,1.21-.19,1.82-.39,1.45-.48,2.85-1.12,4.22-1.8,1.69-.83,3.34-1.71,4.94-2.69,3.63-2.21,7.01-4.88,9.95-7.96,2.98-3.12,5.5-6.66,7.56-10.45,2.64-4.85,4.53-10.09,5.55-15.54,1.51-8.09,1.1-16.62-1.75-24.44-1.26-3.47-3.01-6.79-5.68-9.28-2.46-2.29-5.72-3.87-9.04-4.4-3.19-.51-6.43-.06-9.63.83-2.43.68-4.83,1.61-6.57,3.29-1.62,1.57-2.67,3.78-3.24,6.03-.68,2.64-.7,5.32-.72,7.99,0,2.83,0,5.65,0,8.47.01,4.93.01,9.86,0,14.79.01,1.86.02,3.72,0,5.59-.03,4.85-.22,9.74-.2,14.53.02,3.75.16,7.44.15,11.59,0,.97,0,1.96.3,2.65.15.33.37.59.66.78.45.3,1.05.44,1.68.41Zm-16.03,3.1c-1.97-.02-3.94-.01-5.91,0,0-.43,0-.85,0-1.28.63-.22,1.26-.45,1.91-.67.55-.19,1.12-.37,1.58-.69.97-.67,1.46-1.92,1.83-3.14,1.1-3.67,1.09-7.15,1.07-10.7-.02-7.19-.01-14.67.05-22.07.06-6.87.17-13.66.09-20.45-.04-2.71-.1-5.43-.29-8.13-.09-1.19-.2-2.38-.31-3.57-.43-.48-.86-.95-1.36-1.37-.7-.6-1.52-1.08-2.39-1.33-.67-.18-1.38-.23-2.08-.27,2.57-1.76,5.14-3.52,7.85-5.05,4.62-2.6,9.66-4.52,14.84-5.7,5.35-1.22,10.84-1.65,16.33-1.46,6.08.21,12.15,1.18,17.9,3.23,2.82,1.01,5.57,2.28,7.98,4,2.02,1.44,3.8,3.21,5.59,4.98-.36.03-.71.07-1.06.17-.47.13-.92.37-1.25.72-.27.28-.47.63-.66.98.89,3.35,1.79,6.7,2.32,10.13,1.1,7.11.65,14.56-1.41,21.5-1.87,6.32-5.07,12.21-9.22,17.3-3.79,4.63-8.36,8.6-13.27,12.01-4.27,2.97-8.78,5.54-13.56,7.45-2.66,1.06-5.4,1.92-8.26,2.49-3.08.6-6.29.87-9.45.95-2.99.08-5.93-.01-8.87-.03Z"
         id="path18" />
      <path
         d="m390.43,470.42c-.71,1.29-1.46,2.56-2.21,3.84-.22,0-.44,0-.66.01-.11-.76-.22-1.51-.43-2.23-.33-1.12-.89-2.18-1.6-3.13-1.41-1.9-3.37-3.38-5.55-4.31-1.74-.75-3.62-1.16-5.49-1.13-2.24.04-4.49.71-6.44,1.82-2.64,1.5-4.75,3.8-6.56,6.23-1.31,1.75-2.47,3.56-3.63,5.41-.53.83-1.07,1.68-1.39,2.61-.16.46-.26.94-.25,1.43.01.26.04.52.15.75.07.14.16.28.28.38.07.07.15.13.23.19h24.52c-.43.67-.85,1.33-1.29,1.98-.86,1.25-1.78,2.46-2.72,3.64-.71.89-1.43,1.76-2.15,2.63-.11-.27-.23-.54-.4-.77-.31-.44-.81-.73-1.32-.97-1.14-.55-2.32-.86-3.53-1.05-1.63-.26-3.3-.28-4.97-.33-1.72-.06-3.44-.14-5.14-.05-.95.05-1.89.16-2.86.31-.62.1-1.25.22-1.76.55-.47.3-.84.8-1.11,1.31-.88,1.64-.91,3.53-.9,5.4.03,4.2.26,8.28,1.05,12.28,1.06,5.43,3.15,10.71,5.73,15.71,2.01,3.89,4.32,7.61,7.22,10.84,3.47,3.87,7.77,7.03,12.39,9.46,1.81.96,3.67,1.8,5.59,2.49,1.13.41,2.28.76,3.43,1.12.22.26.44.51.66.77-2.21-.15-4.42-.3-6.6-.66-4.1-.69-8.07-2.15-11.85-3.97-7.29-3.52-13.9-8.41-19.16-14.57-5.47-6.41-9.46-14.2-11.17-22.42-1.29-6.17-1.3-12.57-.38-18.79.91-6.16,2.73-12.13,5.13-17.87.45-1.07.92-2.13,1.53-3.1.35-.57.75-1.1,1.15-1.64,0-.2,0-.39-.04-.58-.08-.37-.28-.71-.52-1-.32-.37-.72-.65-1.14-.89-.63-.36-1.31-.63-2.01-.77-.62-.12-1.26-.14-1.89-.17v-1.43c6.41.01,12.82.01,19.23,0,5.65-.01,11.31-.02,16.96,0,2.15.01,4.29.03,6.44,0,1.53-.02,3.07-.06,4.61,0,.61.02,1.23.06,1.84,0,.57-.06,1.14-.21,1.69-.41.38-.15.76-.32,1.12-.51.34-.19.67-.41,1-.62-.19.92-.37,1.84-.62,2.73-.41,1.5-1.01,2.95-1.66,4.37-.78,1.74-1.64,3.44-2.55,5.11Z"
         id="path20" />
      <path
         d="m459.31,473.91c.41,1.15.84,2.29,1.28,3.43-.25-.02-.5-.05-.75-.07-.35-.03-.71-.04-1.06-.03-.77.03-1.52.19-2.27.38-1.48.38-2.92.85-4.33,1.41-1.71.69-3.37,1.51-5.04,2.31-2.35,1.14-4.72,2.24-6.87,3.69-.88.59-1.71,1.24-2.55,1.88,1.66.49,3.31.99,4.92,1.63,1.83.73,3.59,1.65,5.26,2.74,3.1,2.03,5.86,4.63,8,7.65,2.04,2.87,3.53,6.12,4.45,9.52,1.43,5.28,1.5,10.93.44,16.32-1.07,5.43-3.28,10.59-6.32,15.2-2.1,3.17-4.58,6.07-7.42,8.55-1.71,1.48-3.54,2.81-5.37,4.15.77-1.04,1.54-2.08,2.27-3.14,1.67-2.45,3.11-5.07,4.3-7.79,1.87-4.26,3.14-8.78,3.68-13.41.72-6.21.13-12.64-2.11-18.5-1.66-4.32-4.21-8.34-7.6-11.45-2.1-1.93-4.53-3.51-7.14-4.68-2.28-1.02-4.7-1.72-7.16-2.06-1.53-.2-3.07-.27-4.61-.33.81-.86,1.63-1.72,2.49-2.53,1.26-1.15,2.63-2.18,4.04-3.16,1.86-1.28,3.8-2.47,5.79-3.48,1.98-1.01,4.03-1.85,5.99-3.09.89-.57,1.76-1.22,2.27-2.06.67-1.13.69-2.61.65-4.05-.05-1.58-.19-3.12-.85-4.43-.84-1.65-2.54-2.94-4.33-3.7-2.38-1-4.95-1.07-7.5-.82-2.9.29-5.78,1.01-8.2,2.53-1.83,1.15-3.39,2.76-4.54,4.6-1.53,2.43-2.32,5.26-2.73,8.1-.53,3.7-.4,7.41-.36,11.11.06,6.2-.14,12.38-.33,18.6-.21,6.85-.41,13.75-.33,20.44.04,3.17.15,6.29.54,9.67.13,1.2.31,2.44,1.03,3.29.42.5,1.03.87,1.63,1.2.81.45,1.62.83,2.43,1.22-7.51.07-15.02.15-22.54.22.79-.53,1.57-1.06,2.31-1.68.82-.69,1.59-1.49,2.09-2.39,1.09-1.96.96-4.43.88-6.82-.17-5.33-.07-10.29-.03-15.34.06-6.59,0-13.34-.03-20.05-.04-8.25-.05-16.45-.05-24.64-.37-.4-.73-.8-1.14-1.17-.66-.59-1.43-1.1-2.27-1.38-.77-.27-1.59-.35-2.42-.42,2.43-1.73,4.86-3.45,7.43-4.94,3.81-2.23,7.93-3.95,12.18-5.23,5.19-1.56,10.57-2.46,15.99-2.63,4.42-.14,8.86.19,13.11,1.47,2.23.67,4.39,1.6,6.21,3.01,1.83,1.43,3.3,3.35,4.36,5.43.93,1.83,1.54,3.79,2.23,5.72Z"
         id="path22" />
    </g>
  </g>
  <g
     id="SPLINE-2"
     data-name="SPLINE">
    <g
       id="g45">
      <polygon
         points="340.11 333.13 340.11 348.43 330.21 348.43 330.21 323.12 340.11 333.13"
         id="polygon27" />
      <polygon
         points="322.38 315.21 322.38 348.43 312.96 348.43 312.96 305.68 322.38 315.21"
         id="polygon29" />
      <rect
         x="294.77"
         y="304.7"
         width="11.59"
         height="43.73"
         id="rect31" />
      <polygon
         points="288.17 305.68 288.17 348.43 278.75 348.43 278.75 315.21 288.17 305.68"
         id="polygon33" />
      <polygon
         points="270.92 323.12 270.92 348.43 261.03 348.43 261.03 333.13 270.92 323.12"
         id="polygon35" />
      <path
         d="m352,352.85c.18.26.22.57.11.87-.65,1.76-1.29,3.51-1.94,5.26h-99.21c-.64-1.75-1.29-3.5-1.94-5.26-.11-.3-.07-.61.12-.87.18-.26.46-.41.78-.41h101.3c.31,0,.6.15.78.41Z"
         id="path37" />
      <path
         d="m348.38,362.36l-45.51,23.97c-1.45.73-3.16.73-4.61,0l-45.51-23.97h95.63Z"
         id="path39" />
      <path
         d="m278.09,226.43c-.13-.72-.24-1.44-.27-2.17-.01-.19.09-.36.26-.45s.36-.07.51.06c.88.71,1.62,1.6,2.37,2.47,1.29,1.51,2.62,2.97,4,4.37.39.4.79.79,1.19,1.18,1.22,1.16,2.49,2.27,3.88,3.26,2.52,1.8,5.42,3.22,8.46,3.59.69.08,1.38.11,2.08.1.69.01,1.39-.02,2.07-.1,3.05-.37,5.95-1.79,8.47-3.59,1.85-1.32,3.49-2.85,5.06-4.44,1.39-1.4,2.71-2.86,4.01-4.37.74-.87,1.48-1.76,2.36-2.47.15-.13.34-.15.52-.06.17.09.27.26.26.45-.04.73-.15,1.45-.27,2.17-.14.76-.29,1.51-.45,2.26-.48,2.29-.99,4.48-1.66,6.88-.12.46-.26.94-.15,1.36.02.05.03.1.05.15.14.35.45.58.83.6.24.02.49.03.74.05,3.14.17,6.28.17,9.44.16,5.13-.03,10.29-.12,15.35-.85,5.4-.77,10.7-2.28,15.9-3.95,5.63-1.81,11.15-3.8,16.29-7.03.91-.57,1.81-1.19,2.37-2.07.5-.8.73-1.82.62-2.77-.07-.73-.35-1.42-.64-2.09-.78-1.8-1.67-3.51-2.67-5.17-.94-1.54-1.96-3.02-2.96-4.54-2.55-3.84-5.01-7.86-8.7-10.64-.38-.29-.77-.56-1.07-.91-.03-.03-.05-.06-.08-.09-.1-.12-.12-.28-.08-.44.05-.15.17-.26.32-.31.04,0,.08-.02.11-.03.14-.03.29-.04.44-.04.46,0,.96.11,1.44.24,1.07.29,2.03.61,3.01.94,2.19.75,4.42,1.58,6.61,2.49,4.45,1.86,8.72,4.11,12.58,6.92,3.79,2.74,7.2,6.03,10.35,9.52,5.64,6.23,10.48,13.12,14.74,20.33,6.91,11.72,12.3,24.28,17.05,37.05,5.25,14.12,9.72,28.48,13.49,43.04,1.61,6.23,3.09,12.49,4.42,18.78.11.52-.05,1.02-.45,1.37s-.92.45-1.42.27c-.73-.25-1.43-.54-2.13-.82-2.31-.93-4.65-1.77-7.02-2.54-3.99-1.32-8.03-2.44-12.09-3.55-5.86-1.6-11.76-3.16-17.75-3.96-5.37-.72-10.81-.83-16.4-.58-3.37.15-6.8.44-9.91.95-.48.07-.94.16-1.41.24-1.45.28-2.54,1.27-2.95,2.68-2.4,8.2-4.79,16.4-7.19,24.61-.16.56-.61.94-1.2,1.01-.15.02-.31.04-.46.06-.62.06-1.26.08-1.86-.05s-1.16-.42-1.71-.7c-.92-.45-1.83-.86-2.79-1.2-.76-.27-1.56-.48-2.37-.5-.77-.03-1.55.13-2.26.42-.62.26-1.17.62-1.66,1.07-.62.57-1.12,1.26-1.74,1.81-.15.14-.36.17-.54.07-.18-.09-.28-.27-.25-.47.02-.17.04-.34.08-.51.2-.89.67-1.7,1.21-2.45.67-.93,1.44-1.78,2.43-2.37.95-.58,2.09-.92,3.17-.81.9.09,1.76.51,2.61.88.28.12.57.24.85.36.32.13.66.11.97-.04.31-.14.53-.41.62-.73,6.09-20.9,12.17-41.79,18.25-62.68.06-.24-.05-.45-.28-.53-.22-.08-.44.02-.53.25-7.76,19.24-15.51,38.49-23.26,57.74-.09.22-.28.38-.52.43-.25.05-.48-.02-.65-.2-16.25-16.43-32.5-32.86-48.61-49.15-.18-.21-.37-.41-.5-.65-.17-.31-.24-.67-.27-1.04-.09-.81-.01-1.6.07-2.41.14-1.62.25-3.27-.08-4.86-.31-1.52-1.02-2.99-2.03-4.17-1.25-1.48-2.97-2.5-4.77-3.28-.71-.3-1.42-.56-2.16-.67-.4-.05-.81-.07-1.21-.08-.41.01-.82.03-1.22.08-.74.11-1.45.37-2.15.67-1.8.78-3.52,1.8-4.78,3.28-1,1.18-1.71,2.65-2.02,4.17-.33,1.59-.23,3.24-.08,4.86.07.81.15,1.6.07,2.41-.04.37-.11.73-.28,1.04-.13.24-.31.44-.5.65-16.1,16.29-32.35,32.72-48.6,49.15-.17.18-.41.25-.65.2s-.43-.21-.52-.43c-7.76-19.25-15.51-38.5-23.26-57.74-.09-.23-.31-.33-.54-.25s-.34.29-.27.53c6.08,20.89,12.16,41.78,18.24,62.68.1.32.32.59.62.73.31.15.65.17.97.04.29-.12.57-.24.86-.36.85-.37,1.7-.79,2.61-.88,1.07-.11,2.21.23,3.16.81.99.59,1.77,1.44,2.44,2.37.53.75,1,1.56,1.2,2.45.04.17.07.34.09.51.02.2-.08.38-.26.47-.18.1-.38.07-.53-.07-.62-.55-1.13-1.24-1.74-1.81-.49-.45-1.05-.81-1.67-1.07-.7-.29-1.48-.45-2.25-.42-.82.02-1.61.23-2.37.5-.97.34-1.88.75-2.79,1.2-.56.28-1.12.57-1.71.7-.6.13-1.24.11-1.86.05-.16-.02-.31-.04-.47-.06-.59-.07-1.03-.45-1.2-1.01-2.39-8.21-4.79-16.41-7.18-24.61-.42-1.41-1.51-2.4-2.96-2.68-.46-.08-.93-.17-1.4-.24-3.11-.51-6.54-.8-9.91-.95-5.6-.25-11.04-.14-16.41.58-5.99.8-11.88,2.36-17.74,3.96-4.06,1.11-8.1,2.23-12.1,3.55-2.36.77-4.71,1.61-7.01,2.54-.71.28-1.41.57-2.13.82-.5.18-1.02.08-1.42-.27s-.57-.85-.46-1.37c1.33-6.29,2.81-12.55,4.43-18.78,3.77-14.56,8.24-28.92,13.49-43.04,4.75-12.77,10.13-25.33,17.05-37.05,4.26-7.21,9.1-14.1,14.73-20.33,3.16-3.49,6.56-6.78,10.35-9.52,3.87-2.81,8.14-5.06,12.58-6.92,2.19-.91,4.42-1.74,6.62-2.49.97-.33,1.94-.65,3.01-.94.48-.13.97-.24,1.43-.24.15,0,.3.01.44.04.04.01.07.02.11.03.16.05.27.16.32.31.05.16.02.32-.08.44-.02.03-.05.06-.07.09-.3.35-.7.62-1.07.91-3.7,2.78-6.15,6.8-8.7,10.64-1.01,1.52-2.03,3-2.96,4.54-1,1.66-1.9,3.37-2.67,5.17-.3.67-.57,1.36-.65,2.09-.1.95.12,1.97.63,2.77.56.88,1.46,1.5,2.37,2.07,5.14,3.23,10.65,5.22,16.28,7.03,5.2,1.67,10.5,3.18,15.9,3.95,5.07.73,10.22.82,15.36.85,3.15.01,6.3.01,9.44-.16.24-.02.49-.03.74-.05.37-.02.68-.25.82-.6.02-.05.04-.1.05-.15.11-.42-.02-.9-.15-1.36-.67-2.4-1.18-4.59-1.66-6.88-.16-.75-.31-1.5-.44-2.26Zm104.53,32.42c-1.05.81-2.09,1.61-3.15,2.4-1.68,1.25-3.38,2.46-5.08,3.67-1.62,1.14-3.24,2.29-4.85,3.45-.54.4-1.09.8-1.74,1.29-.94-.34-1.92-.62-2.9-.87-3.6-.94-7.31-1.61-11.05-2.08-4.65-.58-9.35-.84-14-.48-3.44.27-6.85.88-10.18,1.82-2.19.62-4.34,1.39-6.38,2.34-.77.35-1.51.74-2.11,1.43-.27.31-.5.68-.49,1.03.01.46.46.88.91,1.21.74.54,1.48.84,2.24,1.12,2.12.78,4.4,1.46,6.6,2.28,2.38.89,4.68,1.96,6.82,3.29,3.55,2.21,6.69,5.14,9.16,8.55,2.43,3.36,4.22,7.16,5.37,11.12,1.07,3.67,1.59,7.46,2.35,11.2.5,2.48,1.11,4.93,1.7,7.39.42,1.78.83,3.56,1.24,5.34.07-2.38.13-4.76.06-7.13-.12-3.85-.6-7.67-1.23-11.51-.86-5.28-1.98-10.58-4.3-15.37-1.67-3.43-3.95-6.61-6.61-9.38-1.25-1.31-2.58-2.53-4.06-3.58-1.7-1.21-3.58-2.18-5.55-2.84-1.51-.5-3.08-.82-4.65-1.04-1.52-.21-3.05-.33-4.58-.45,1.37-.36,2.73-.72,4.11-1.05,2.85-.69,5.73-1.27,8.65-1.67,3.71-.5,7.47-.71,11.18-.37,3.51.32,6.97,1.13,10.41,1.92,1.72.39,3.44.78,5.14,1.26.85.23,1.69.5,2.52.77,1.4-1.47,2.8-2.93,4.22-4.36,2.16-2.18,4.38-4.29,6.47-6.52,1.28-1.37,2.52-2.77,3.76-4.18Zm-4.65-16.99c1.66-2.09,3.07-4.38,4.47-6.67-3.48,2.77-6.97,5.54-10.78,7.78-3.32,1.96-6.89,3.53-10.56,4.77-3.66,1.23-7.43,2.15-11.25,2.69-4.1.59-8.26.74-12.41.5-3.55-.21-7.08-.71-10.52-1.56-1.63-.4-3.24-.89-4.84-1.37.88.69,1.77,1.38,2.7,2,1.68,1.13,3.49,2.07,5.35,2.89,2.33,1.03,4.74,1.88,7.21,2.49,3.66.91,7.47,1.27,11.25,1.11,3.39-.15,6.75-.72,9.99-1.71,3.97-1.21,7.75-3.04,11.19-5.39,3.08-2.11,5.89-4.63,8.2-7.53Zm-64.01,8.75c-.33-.36-.67-.73-1.02-1.07-.6-.58-1.25-1.11-1.92-1.6-.89-.63-1.83-1.19-2.82-1.66-1.08-.51-2.21-.91-3.37-1.19-1.29-.32-2.6-.49-3.92-.51-1.26-.03-2.53.08-3.77.32-1.95.39-3.85,1.1-5.57,2.1-1.14.66-2.2,1.46-3.16,2.36-.43.4-.83.82-1.24,1.25,1.27-.55,2.55-1.06,3.86-1.46,1.5-.46,3.04-.77,4.6-1,1.63-.24,3.28-.38,4.93-.39,1.23,0,2.45.09,3.67.23,1.54.18,3.07.45,4.57.83,1.08.27,2.14.6,3.18.99.67.25,1.32.52,1.98.8Zm-4.81,6.01c.22.09.44.18.66.28-.36-.34-.74-.69-1.15-1-.57-.44-1.18-.83-1.82-1.17-1.01-.54-2.1-.95-3.22-1.22-1.13-.27-2.3-.38-3.46-.35-1.1.03-2.2.21-3.26.51-.84.24-1.65.57-2.42.96-.69.36-1.34.76-1.95,1.23-.42.33-.81.68-1.2,1.04,1.24-.55,2.54-1,3.86-1.33,1.12-.27,2.27-.45,3.42-.54,1.09-.09,2.19-.11,3.28-.05.92.05,1.83.16,2.73.33.94.17,1.87.4,2.78.68.59.18,1.18.39,1.75.63Zm-28.7,16.23c.01-.35-.23-.72-.5-1.03-.59-.69-1.34-1.08-2.1-1.43-2.04-.95-4.2-1.72-6.39-2.34-3.33-.94-6.74-1.55-10.17-1.82-4.66-.36-9.36-.1-14,.48-3.75.47-7.45,1.14-11.06,2.08-.98.25-1.95.53-2.9.87-.65-.49-1.19-.89-1.74-1.29-1.6-1.16-3.22-2.31-4.84-3.45-1.71-1.21-3.41-2.42-5.08-3.67-1.06-.79-2.11-1.59-3.15-2.4,1.23,1.41,2.47,2.81,3.75,4.18,2.1,2.23,4.31,4.34,6.47,6.52,1.43,1.43,2.83,2.89,4.22,4.36.84-.27,1.68-.54,2.52-.77,1.7-.48,3.42-.87,5.14-1.26,3.45-.79,6.9-1.6,10.41-1.92,3.71-.34,7.48-.13,11.18.37,2.92.4,5.8.98,8.66,1.67,1.37.33,2.74.69,4.1,1.05-1.52.12-3.05.24-4.57.45-1.58.22-3.14.54-4.65,1.04-1.98.66-3.86,1.63-5.56,2.84-1.47,1.05-2.81,2.27-4.06,3.58-2.66,2.77-4.94,5.95-6.61,9.38-2.31,4.79-3.44,10.09-4.3,15.37-.62,3.84-1.11,7.66-1.23,11.51-.07,2.37,0,4.75.06,7.13.41-1.78.82-3.56,1.25-5.34.58-2.46,1.19-4.91,1.7-7.39.76-3.74,1.28-7.53,2.34-11.2,1.15-3.96,2.94-7.76,5.38-11.12,2.47-3.41,5.61-6.34,9.15-8.55,2.15-1.33,4.44-2.4,6.83-3.29,2.2-.82,4.47-1.5,6.59-2.28.76-.28,1.5-.58,2.25-1.12.44-.33.89-.75.91-1.21Zm-4.1-22.85c.93-.62,1.82-1.31,2.71-2-1.61.48-3.22.97-4.85,1.37-3.44.85-6.97,1.35-10.52,1.56-4.14.24-8.31.09-12.41-.5-3.82-.54-7.58-1.46-11.25-2.69-3.67-1.24-7.24-2.81-10.56-4.77-3.81-2.24-7.29-5.01-10.77-7.78,1.4,2.29,2.8,4.58,4.47,6.67,2.3,2.9,5.11,5.42,8.19,7.53,3.44,2.35,7.23,4.18,11.2,5.39,3.23.99,6.6,1.56,9.99,1.71,3.78.16,7.58-.2,11.24-1.11,2.48-.61,4.88-1.46,7.22-2.49,1.85-.82,3.67-1.76,5.34-2.89Z"
         id="path41" />
      <path
         d="m143.39,350.06c-.04.25-.2.45-.43.55-.24.09-.49.06-.7-.09-.29-.21-.57-.43-.85-.65-2.46-1.96-4.61-4.33-6.7-6.71-3-3.4-5.9-6.83-8.89-10.23-3.44-3.9-7-7.75-9.93-12.04-.5-.73-.98-1.48-1.45-2.23-.75-1.21-1.03-2.59-.79-3.99.13-.73.25-1.47.37-2.2,1.35-7.85,2.99-15.75,5.4-23.4,2.86-9.08,6.8-17.81,11.29-26.21,6.11-11.39,13.26-22.16,20.71-32.69,7.11-10.05,14.5-19.88,21.41-30.07,4.55-6.72,8.89-13.61,12.02-21.02,1.57-3.72,2.84-7.58,3.83-11.51,2.74-10.9,3.36-22.32,4.62-33.6,1.3-11.63,3.28-23.11,6.27-34.44,3.66-13.92,8.84-27.62,17.06-39.5,5.59-8.07,12.59-15.29,20.84-20.5,7.76-4.89,16.63-8,25.62-9.9,7.25-1.52,14.57-2.26,21.94-2.54.07,6.83.15,12.26.22,17.69.22,15.77.45,31.54.64,47.31.12,10.87.23,21.74.43,32.6.19,9.7.46,19.39.4,29.12-.02,2.65-.07,5.31.12,7.94.08,1.24.22,2.47.39,3.7.03.23.21.4.45.41s.43-.14.49-.37c.09-.4.18-.8.26-1.2.3-1.45.49-2.93.6-4.42.2-2.81.09-5.65.03-8.48-.09-4.07-.07-8.11-.07-12.15,0-8.23-.13-16.47-.2-24.71-.16-16.65-.17-33.3-.31-49.95-.08-9.21-.2-18.42-.31-27.66-.05-4.27-.1-8.54-.09-12.8.03,0,.06-.03.09-.04.16-.07.34-.1.52-.12.95-.13,1.88-.19,2.81-.25,3.01-.17,6.04-.21,9.07-.2,3.02-.01,6.05.03,9.06.2.94.06,1.87.12,2.81.25.18.02.36.05.53.12.03.01.05.03.08.04.01,4.26-.03,8.53-.08,12.8-.11,9.24-.23,18.45-.31,27.66-.15,16.65-.16,33.3-.31,49.95-.08,8.24-.19,16.48-.2,24.71-.01,4.04.02,8.08-.07,12.15-.06,2.83-.18,5.67.02,8.48.11,1.49.31,2.97.6,4.42.08.4.17.8.27,1.2.05.23.25.38.48.37.24-.01.42-.18.45-.41.18-1.23.31-2.46.4-3.7.18-2.63.14-5.29.12-7.94-.07-9.73.2-19.42.39-29.12.21-10.86.31-21.73.44-32.6.18-15.77.42-31.54.63-47.31.08-5.43.15-10.86.22-17.69,7.37.28,14.7,1.02,21.94,2.54,9,1.9,17.86,5.01,25.62,9.9,8.26,5.21,15.26,12.43,20.84,20.5,8.23,11.88,13.4,25.58,17.07,39.5,2.98,11.33,4.97,22.81,6.27,34.44,1.26,11.28,1.87,22.7,4.62,33.6.99,3.93,2.26,7.79,3.83,11.51,3.13,7.41,7.47,14.3,12.02,21.02,6.9,10.19,14.29,20.02,21.4,30.07,7.46,10.53,14.6,21.3,20.71,32.69,4.5,8.4,8.44,17.13,11.29,26.21,2.41,7.65,4.05,15.55,5.4,23.4.13.73.25,1.47.37,2.2.24,1.4-.03,2.78-.78,3.99-.47.75-.95,1.5-1.46,2.23-2.92,4.29-6.48,8.14-9.93,12.04-2.99,3.4-5.88,6.83-8.88,10.23-2.1,2.38-4.25,4.75-6.71,6.71-.28.22-.56.44-.85.65-.2.15-.45.18-.69.09-.24-.1-.4-.3-.44-.55-.47-2.96-.97-5.91-1.5-8.86-2.07-11.31-4.79-22.49-7.89-33.58-4.14-14.77-8.96-29.36-14.88-43.47-2.74-6.53-5.71-12.96-8.9-19.31-5.47-10.94-11.57-21.68-19.73-30.82-4.87-5.46-10.49-10.35-16.92-13.84-5.77-3.12-12.19-5.12-18.75-5.7-.68-.06-1.36-.1-2.04-.13-5.17-.22-10.39.45-15.29,2.02-7.04,2.25-13.45,6.37-19,11.26-4.47,3.93-8.39,8.36-12.04,13.07-3.04,3.91-5.89,8.02-9.76,11.09-1.82,1.44-3.85,2.65-6.07,3.35-1.42.45-2.91.69-4.4.71-1.5-.02-2.99-.26-4.4-.71-2.22-.7-4.26-1.91-6.07-3.35-.73-.57-1.42-1.19-2.08-1.83-2.87-2.77-5.22-6.08-7.69-9.26-3.65-4.71-7.56-9.14-12.03-13.07-5.56-4.89-11.97-9.01-19.01-11.26-4.9-1.57-10.11-2.24-15.29-2.02-.68.03-1.36.07-2.04.13-6.56.58-12.98,2.58-18.75,5.7-6.43,3.49-12.04,8.38-16.92,13.84-8.16,9.14-14.25,19.88-19.73,30.82-3.18,6.35-6.16,12.78-8.89,19.31-5.92,14.11-10.75,28.7-14.88,43.47-3.11,11.09-5.83,22.27-7.89,33.58-.54,2.95-1.03,5.9-1.51,8.86Zm263.28-157.93c.01-.05.01-.09.02-.14-.36-.15-.72-.32-1.06-.51-.97-.52-1.86-1.2-2.76-1.85-1.62-1.18-3.27-2.31-4.94-3.39-4.48-2.87-9.19-5.43-14.1-7.54-5.16-2.22-10.55-3.95-16.1-4.87-5.34-.89-10.84-1.04-16.2-.26-4.47.65-8.85,1.95-13.01,3.71-3.6,1.53-7.04,3.41-10.27,5.58-1.39.93-2.75,1.92-4.09,2.93-.17.12-.21.33-.09.51.11.17.31.23.5.13.39-.21.78-.41,1.17-.61,1.62-.85,3.25-1.68,4.92-2.44,2.24-1.01,4.54-1.88,6.89-2.63,4.36-1.39,8.88-2.34,13.44-2.66,5.35-.37,10.75.12,16.07.95,4.81.76,9.56,1.8,14.19,3.23,4.45,1.37,8.8,3.09,13.06,4.99,2.13.94,4.24,1.93,6.32,2.96,1.06.53,2.11,1.07,3.21,1.55.58.25,1.16.48,1.77.6.19.04.39.06.59.05.12-.01.24-.03.33-.1.06-.04.11-.12.14-.19Zm-129.6-5.83c.11-.18.07-.39-.1-.51-1.34-1.01-2.69-2-4.08-2.93-3.24-2.17-6.68-4.05-10.28-5.58-4.16-1.76-8.53-3.06-13.01-3.71-5.35-.78-10.85-.63-16.2.26-5.55.92-10.93,2.65-16.09,4.87-4.91,2.11-9.62,4.67-14.1,7.54-1.68,1.08-3.33,2.21-4.95,3.39-.89.65-1.78,1.33-2.75,1.85-.35.19-.7.36-1.06.51,0,.05,0,.09.02.14.02.07.07.15.14.19.09.07.21.09.33.1.2.01.39-.01.59-.05.6-.12,1.19-.35,1.76-.6,1.1-.48,2.15-1.02,3.22-1.55,2.08-1.03,4.19-2.02,6.31-2.96,4.27-1.9,8.61-3.62,13.06-4.99,4.63-1.43,9.38-2.47,14.19-3.23,5.32-.83,10.72-1.32,16.07-.95,4.56.32,9.08,1.27,13.45,2.66,2.35.75,4.65,1.62,6.89,2.63,1.66.76,3.29,1.59,4.92,2.44.39.2.78.4,1.17.61.18.1.39.04.5-.13Z"
         id="path43" />
    </g>
  </g>
  <g
     id="MTEXT">
    <text
       transform="translate(223.15 591.55)"
       style="font-family: ArialMT, Arial; font-size: 18.24px;"
       id="text50"><tspan
         x="0"
         y="0"
         id="tspan48">templatesarea.com</tspan></text>
  </g>
  <metadata
     id="metadata162">
    <rdf:RDF>
      <cc:License
         rdf:about="http://creativecommons.org/licenses/by-nc/4.0/">
        <cc:permits
           rdf:resource="http://creativecommons.org/ns#Reproduction" />
        <cc:permits
           rdf:resource="http://creativecommons.org/ns#Distribution" />
        <cc:requires
           rdf:resource="http://creativecommons.org/ns#Notice" />
        <cc:requires
           rdf:resource="http://creativecommons.org/ns#Attribution" />
        <cc:prohibits
           rdf:resource="http://creativecommons.org/ns#CommercialUse" />
        <cc:permits
           rdf:resource="http://creativecommons.org/ns#DerivativeWorks" />
      </cc:License>
      <cc:Work
         rdf:about="">
        <cc:license
           rdf:resource="http://creativecommons.org/licenses/by-nc/4.0/" />
        <dc:title>Free downloadable Darth Vader head and font SVG image.</dc:title>
        <dc:creator>
          <cc:Agent>
            <dc:title>templatesarea.com</dc:title>
          </cc:Agent>
        </dc:creator>
        <dc:publisher>
          <cc:Agent>
            <dc:title>templatesarea.com</dc:title>
          </cc:Agent>
        </dc:publisher>
        <dc:description>Star Wars SVG: Darth Vader Head &amp; Font for Free Download</dc:description>
      </cc:Work>
    </rdf:RDF>
  </metadata>
</svg>
